# xmcd CD database file
#
# Track frame offsets:
#	150
#	18735
#	34974
#	51002
#	70755
#	87134
#	102968
#	121064
#
# Disc length: 1828 seconds
#
# Revision: 0
# Processed by: cddbd v1.5.2PL0 Copyright (c) Steve Scherf et al.
# Submitted via: CDex 1.70beta2
#
DISCID=61072208
DTITLE=Brandon Wolfe - Just Honk
DYEAR=2007
DGENRE=Country
TTITLE0=The Traveller
TTITLE1=Southern Angel
TTITLE2=Something We Can't Buy
TTITLE3=She Is Always On My Mind
TTITLE4=It Ain't No Vow
TTITLE5=Honky Tonk Calling
TTITLE6=Disappear
TTITLE7=Branded
EXTD=YEAR: 2007
EXTT0=
EXTT1=
EXTT2=
EXTT3=
EXTT4=
EXTT5=
EXTT6=
EXTT7=
PLAYORDER=
